<svg xmlns="http://www.w3.org/2000/svg" width="198" height="202">
  <g fill="none" fill-rule="evenodd">
    <path fill="#48A5DB" d="M1.5.5h7a24.235 24.235 0 0 0 3.5 10 5770.502 5770.502 0 0 1 55.5 74h-5a3128.55 3128.55 0 0 1-56-74l-6-3v-5c.838-.342 1.172-1.008 1-2Zm2 2c4.461.548 4.961 2.215 1.5 5-2.324-1.275-2.824-2.942-1.5-5Z" opacity=".695"/>
    <path fill="#48A5DB" d="M34.5.5h6a61.19 61.19 0 0 0 2.5 8 2037.806 2037.806 0 0 1 56.5 76h-5a131535.029 131535.029 0 0 1-54.5-73 86.513 86.513 0 0 0-6.5-4c-1.427-2.616-1.094-4.949 1-7Zm1 2h4c-.035 5.524-1.702 6.19-5 2 .363-.683.696-1.35 1-2Z" opacity=".699"/>
    <path fill="#48A6DC" d="M132.5 93.5h-20a2685.303 2685.303 0 0 1-43.5-58c-2.13-2.73-4.797-4.73-8-6-1.539-4.24-.206-6.907 4-8a1105.275 1105.275 0 0 0 36 49A4364.244 4364.244 0 0 1 138.5 20a600.47 600.47 0 0 1 49 0 2943.154 2943.154 0 0 1-55 73.5Zm-68-70c3.684 1.703 3.851 3.703.5 6-3.102-1.837-3.269-3.837-.5-6Z" opacity=".932"/>
    <path fill="#48A5DB" d="M79.5 85.5h-5a1062.483 1062.483 0 0 1-40.5-53 28.693 28.693 0 0 0-7-5c-.667-7 2-8.667 8-5a22.5 22.5 0 0 0 2 7 3570.8 3570.8 0 0 0 42.5 56Zm-50-63c3.661-.15 4.661 1.35 3 4.5-3.793.487-4.793-1.013-3-4.5Z" opacity=".684"/>
    <path fill="#48A5DB" d="M89.5 85.5h-5a2279.479 2279.479 0 0 1-33.5-45 28.693 28.693 0 0 0-7-5c-.667-7 2-8.667 8-5a22.5 22.5 0 0 0 2 7 2109.994 2109.994 0 0 1 35.5 48Zm-43-55c3.661-.15 4.661 1.35 3 4.5-3.793.487-4.793-1.013-3-4.5Z" opacity=".686"/>
    <path fill="#47A0D6" d="M62.5 84.5h5c.901.79 1.568 1.79 2 3h-5c-.901-.79-1.568-1.79-2-3Z" opacity=".731"/>
    <path fill="#479FD6" d="M94.5 84.5h5c1.762.762 2.762 2.096 3 4h-5l-3-4Z" opacity=".691"/>
    <path fill="#489FD5" d="M74.5 85.5h5l1 2h-5c-.838-.342-1.172-1.008-1-2Z" opacity=".751"/>
    <path fill="#489FD5" d="M84.5 85.5h5c1 .333 1.667 1 2 2h-5c-1-.333-1.667-1-2-2Z" opacity=".692"/>
    <path fill="#479AD1" d="M64.5 87.5h5c1.406.473 2.073 1.473 2 3h-5l-2-3Z" opacity=".754"/>
    <path fill="#479AD1" d="M75.5 87.5h5c1.406.473 2.073 1.473 2 3h-5l-2-3Z" opacity=".753"/>
    <path fill="#479AD1" d="M86.5 87.5h5c.901.79 1.568 1.79 2 3h-5c-.901-.79-1.568-1.79-2-3Z" opacity=".754"/>
    <path fill="#4799CF" d="M97.5 88.5h5a6.544 6.544 0 0 1 3 3h-5a6.541 6.541 0 0 1-3-3Z" opacity=".692"/>
    <path fill="#4796CD" d="M88.5 90.5h5c1 .333 1.667 1 2 2h-5c-1-.333-1.667-1-2-2Z" opacity=".69"/>
    <path fill="#4693CA" d="M66.5 90.5h5c2.043 1.08 3.376 2.746 4 5h-5a807.966 807.966 0 0 0-4-5Z" opacity=".732"/>
    <path fill="#4794CB" d="M77.5 90.5h5c1.762.762 2.762 2.096 3 4h-5l-3-4Z" opacity=".729"/>
    <path fill="#4692C9" d="M100.5 91.5h5l3 4h-5c-1.762-.762-2.762-2.096-3-4Z" opacity=".732"/>
    <path fill="#4692C9" d="M90.5 92.5h5l2 3h-5c-1.406-.473-2.073-1.473-2-3Z" opacity=".751"/>
    <path fill="#48A3D9" d="M112.5 93.5h20l-1 2h-17c-1-.333-1.667-1-2-2Z" opacity=".926"/>
    <path fill="#468CC3" d="M70.5 95.5h5c1.406.473 2.073 1.473 2 3h-5l-2-3Z" opacity=".732"/>
    <path fill="#468CC4" d="M80.5 94.5h5c1.762.762 2.762 2.096 3 4h-5l-3-4Z" opacity=".729"/>
    <path fill="#468BC3" d="M92.5 95.5h5c.901.79 1.568 1.79 2 3h-5c-.901-.79-1.568-1.79-2-3Z" opacity=".729"/>
    <path fill="#468BC3" d="M103.5 95.5h5l2 3h-5c-1.406-.473-2.073-1.473-2-3Z" opacity=".732"/>
    <path fill="#479FD5" d="M114.5 95.5h17a6.544 6.544 0 0 1-3 3h-12c-1.406-.473-2.073-1.473-2-3Z" opacity=".885"/>
    <path fill="#4686BE" d="M72.5 98.5h5a6.541 6.541 0 0 1 3 3h-5a6.541 6.541 0 0 1-3-3Z" opacity=".691"/>
    <path fill="#4686BE" d="M83.5 98.5h5a6.541 6.541 0 0 1 3 3h-5a6.541 6.541 0 0 1-3-3Z" opacity=".689"/>
    <path fill="#4687BE" d="M94.5 98.5h5c1.406.473 2.073 1.473 2 3h-5l-2-3Z" opacity=".729"/>
    <path fill="#4686BE" d="M105.5 98.5h5c.901.79 1.568 1.79 2 3h-5c-.901-.79-1.568-1.79-2-3Z" opacity=".732"/>
    <path fill="#479AD1" d="M116.5 98.5h12c.073 1.527-.594 2.527-2 3h-8c-.901-.79-1.568-1.79-2-3Z" opacity=".852"/>
    <path fill="#4580B8" d="M75.5 101.5h5c1.333 1.333 1.333 2.667 0 4h-5v-4Z" opacity=".744"/>
    <path fill="#4580B8" d="M86.5 101.5h5c1.333 1.333 1.333 2.667 0 4h-5v-4Z" opacity=".738"/>
    <path fill="#4580B8" d="M96.5 101.5h5c2.667 1.333 2.667 2.667 0 4h-5c1.333-1.333 1.333-2.667 0-4Z" opacity=".682"/>
    <path fill="#4580B8" d="M107.5 101.5h5c2.667 1.333 2.667 2.667 0 4h-5c1.333-1.333 1.333-2.667 0-4Z" opacity=".69"/>
    <path fill="#4797CD" d="M118.5 101.5h8l-1 2h-6l-1-2Z" opacity=".806"/>
    <path fill="#4692C9" d="M119.5 103.5h6l3 4h-11c.233-1.562.9-2.895 2-4Z" opacity=".794"/>
    <path fill="#4579B1" d="M75.5 105.5h5a301.462 301.462 0 0 1-3 4h-5c.526-1.73 1.526-3.064 3-4Z" opacity=".719"/>
    <path fill="#4579B2" d="M86.5 105.5h5a6.544 6.544 0 0 1-3 3h-5a6.544 6.544 0 0 1 3-3Z" opacity=".668"/>
    <path fill="#4579B2" d="M96.5 105.5h5c.073 1.527-.594 2.527-2 3h-5l2-3Z" opacity=".729"/>
    <path fill="#4579B1" d="M107.5 105.5h5c-.238 1.904-1.238 3.238-3 4h-5l3-4Z" opacity=".738"/>
    <path fill="#468CC3" d="M117.5 107.5h11l2 3h-16a6.547 6.547 0 0 1 3-3Z" opacity=".878"/>
    <path fill="#4575AD" d="M83.5 108.5h5c.172.992-.162 1.658-1 2h-5l1-2Z" opacity=".651"/>
    <path fill="#4575AD" d="M94.5 108.5h5c.172.992-.162 1.658-1 2h-5l1-2Z" opacity=".689"/>
    <path fill="#4472AB" d="M72.5 109.5h5a301.462 301.462 0 0 1-3 4h-5c.526-1.73 1.526-3.064 3-4Z" opacity=".751"/>
    <path fill="#4472AB" d="M82.5 110.5h5c-.333 1-1 1.667-2 2h-4c-.172-.992.162-1.658 1-2Z" opacity=".701"/>
    <path fill="#4472AB" d="M93.5 110.5h5l-1 2h-5c-.172-.992.162-1.658 1-2Z" opacity=".749"/>
    <path fill="#4472AB" d="M104.5 109.5h5c-.233 1.562-.9 2.895-2 4h-6l3-4Z" opacity=".725"/>
    <path fill="#4686BE" d="M114.5 110.5h16l3 4h-22l3-4Z" opacity=".922"/>
    <path fill="#446DA6" d="M81.5 112.5h4c.073 1.527-.594 2.527-2 3h-5a6.544 6.544 0 0 1 3-3Z" opacity=".679"/>
    <path fill="#446DA6" d="M92.5 112.5h5a6.544 6.544 0 0 1-3 3h-5a6.544 6.544 0 0 1 3-3Z" opacity=".687"/>
    <path fill="#446CA5" d="M69.5 113.5h5c-.432 1.21-1.099 2.21-2 3h-5c.432-1.21 1.099-2.21 2-3Z" opacity=".729"/>
    <path fill="#446CA5" d="M101.5 113.5h6a6.547 6.547 0 0 1-3 3h-5l2-3Z" opacity=".741"/>
    <path fill="#4580B8" d="M111.5 114.5h22a11.743 11.743 0 0 1 3 5h-28a11.743 11.743 0 0 1 3-5Z" opacity=".946"/>
    <path fill="#4366A0" d="M67.5 116.5h5a301.462 301.462 0 0 1-3 4h-5c.526-1.73 1.526-3.064 3-4Z" opacity=".718"/>
    <path fill="#4367A1" d="M78.5 115.5h5c-.526 1.73-1.526 3.064-3 4h-4c.233-1.562.9-2.895 2-4Z" opacity=".725"/>
    <path fill="#4367A1" d="M89.5 115.5h5c-.233 1.562-.9 2.895-2 4h-5c.233-1.562.9-2.895 2-4Z" opacity=".726"/>
    <path fill="#43669F" d="M99.5 116.5h5c-.233 1.562-.9 2.895-2 4h-6a301.462 301.462 0 0 1 3-4Z" opacity=".757"/>
    <path fill="#4579B1" d="M108.5 119.5h28c1.762.762 2.762 2.096 3 4h-34c.238-1.904 1.238-3.238 3-4Z" opacity=".951"/>
    <path fill="#43609A" d="M64.5 120.5h5l-2 3h-5c-.073-1.527.594-2.527 2-3Z" opacity=".728"/>
    <path fill="#43609A" d="M76.5 119.5h4c-.233 1.562-.9 2.895-2 4h-5c.238-1.904 1.238-3.238 3-4Z" opacity=".685"/>
    <path fill="#43609A" d="M87.5 119.5h5l-3 4h-5c.238-1.904 1.238-3.238 3-4Z" opacity=".725"/>
    <path fill="#43609A" d="M96.5 120.5h6a6.546 6.546 0 0 1-3 3h-5c.432-1.21 1.099-2.21 2-3Z" opacity=".733"/>
    <path fill="#435C96" d="M62.5 123.5h5c-.333 1-1 1.667-2 2h-5c.333-1 1-1.667 2-2Z" opacity=".688"/>
    <path fill="#435C96" d="M94.5 123.5h5c.172.992-.162 1.658-1 2h-6c.333-1 1-1.667 2-2Z" opacity=".724"/>
    <path fill="#435A94" d="M73.5 123.5h5l-3 4h-5c.526-1.73 1.526-3.064 3-4Z" opacity=".73"/>
    <path fill="#435A94" d="M84.5 123.5h5a301.462 301.462 0 0 1-3 4h-5c.526-1.73 1.526-3.064 3-4Z" opacity=".724"/>
    <path fill="#4575AD" d="M105.5 123.5h34c1 .333 1.667 1 2 2h-38c.333-1 1-1.667 2-2Z" opacity=".951"/>
    <path fill="#435993" d="M60.5 125.5h5c.172.992-.162 1.658-1 2h-5l1-2Z" opacity=".749"/>
    <path fill="#435993" d="M92.5 125.5h6c-.333 1-1 1.667-2 2h-5l1-2Z" opacity=".793"/>
    <path fill="#4471AA" d="M103.5 125.5h38c.901.79 1.568 1.79 2 3h-42c.432-1.21 1.099-2.21 2-3Z" opacity=".959"/>
    <path fill="#425690" d="M59.5 127.5h5c-.333 1-1 1.667-2 2h-5c.333-1 1-1.667 2-2Z" opacity=".687"/>
    <path fill="#425590" d="M91.5 127.5h5c.172.992-.162 1.658-1 2h-6c.333-1 1-1.667 2-2Z" opacity=".742"/>
    <path fill="#42538E" d="M70.5 127.5h5a301.462 301.462 0 0 1-3 4h-5c.526-1.73 1.526-3.064 3-4Z" opacity=".691"/>
    <path fill="#42538E" d="M81.5 127.5h5a301.462 301.462 0 0 1-3 4h-5c.526-1.73 1.526-3.064 3-4Z" opacity=".723"/>
    <path fill="#446DA6" d="M101.5 128.5h42c1.406.473 2.073 1.473 2 3h-46c-.073-1.527.594-2.527 2-3Z" opacity=".96"/>
    <path fill="#42528D" d="M57.5 129.5h5c.172.992-.162 1.658-1 2h-5l1-2Z" opacity=".749"/>
    <path fill="#42538D" d="M89.5 129.5h6l-1 2h-6l1-2Z" opacity=".812"/>
    <path fill="#42508A" d="M56.5 131.5h5c-.333 1-1 1.667-2 2h-5c.333-1 1-1.667 2-2Z" opacity=".687"/>
    <path fill="#42508A" d="M88.5 131.5h6c-.333 1-1 1.667-2 2h-6c.333-1 1-1.667 2-2Z" opacity=".703"/>
    <path fill="#424D88" d="M67.5 131.5h5a301.462 301.462 0 0 1-3 4h-5a301.462 301.462 0 0 1 3-4Z" opacity=".737"/>
    <path fill="#424C87" d="M78.5 131.5h5c-.624 2.254-1.957 3.921-4 5h-5a813.979 813.979 0 0 0 4-5Z" opacity=".722"/>
    <path fill="#4367A0" d="M99.5 131.5h46c2.043 1.079 3.376 2.746 4 5h-54a21.622 21.622 0 0 1 4-5Z" opacity=".96"/>
    <path fill="#424C86" d="M54.5 133.5h5c.073 1.527-.594 2.527-2 3h-5l2-3Z" opacity=".726"/>
    <path fill="#424C86" d="M86.5 133.5h6c-.432 1.21-1.099 2.21-2 3h-6l2-3Z" opacity=".789"/>
    <path fill="#414782" d="M64.5 135.5h5c-.526 1.73-1.526 3.064-3 4h-5a301.462 301.462 0 0 1 3-4Z" opacity=".696"/>
    <path fill="#414681" d="M74.5 136.5h5c.073 1.527-.594 2.527-2 3h-5l2-3Z" opacity=".721"/>
    <path fill="#414681" d="M52.5 136.5h5c-.238 1.904-1.238 3.238-3 4h-5l3-4Z" opacity=".685"/>
    <path fill="#414681" d="M84.5 136.5h6a301.462 301.462 0 0 1-3 4h-6a301.462 301.462 0 0 1 3-4Z" opacity=".806"/>
    <path fill="#43609A" d="M95.5 136.5h5a18.95 18.95 0 0 1-3 5h-5a18.95 18.95 0 0 1 3-5Z" opacity=".721"/>
    <path fill="#43609A" d="M101.5 136.5h48a802.777 802.777 0 0 0 4 5h-48c-2.043-1.079-3.376-2.746-4-5Z" opacity=".969"/>
    <path fill="#41427D" d="M61.5 139.5h5c-.526 1.73-1.526 3.064-3 4h-5l3-4Z" opacity=".742"/>
    <path fill="#41427E" d="M72.5 139.5h5c.172.992-.162 1.658-1 2h-5l1-2Z" opacity=".742"/>
    <path fill="#41427D" d="M49.5 140.5h5c.172.992-.162 1.658-1 2h-5l1-2Z" opacity=".748"/>
    <path fill="#41427D" d="M81.5 140.5h6l-1 2h-7c.333-1 1-1.667 2-2Z" opacity=".738"/>
    <path fill="#41407B" d="M71.5 141.5h5c-.333 1-1 1.667-2 2h-4c-.172-.992.162-1.658 1-2Z" opacity=".742"/>
    <path fill="#413F7B" d="M48.5 142.5h5l-1 2h-5c-.172-.992.162-1.658 1-2Z" opacity=".747"/>
    <path fill="#413F7B" d="M79.5 142.5h7c-.333 1-1 1.667-2 2h-6l1-2Z" opacity=".748"/>
    <path fill="#435A94" d="M92.5 141.5h5l-3 4h-5c.526-1.73 1.526-3.064 3-4Z" opacity=".717"/>
    <path fill="#435A94" d="M105.5 141.5h48l3 4h-48c-1.762-.762-2.762-2.096-3-4Z" opacity=".964"/>
    <path fill="#413C78" d="M58.5 143.5h5c.073 1.527-.594 2.527-2 3h-5l2-3Z" opacity=".701"/>
    <path fill="#403C77" d="M70.5 143.5h4c-.233 1.562-.9 2.895-2 4h-5c.238-1.904 1.238-3.238 3-4Z" opacity=".72"/>
    <path fill="#403B77" d="M47.5 144.5h5l-3 4h-5c.238-1.904 1.238-3.238 3-4Z" opacity=".685"/>
    <path fill="#403B77" d="M78.5 144.5h6c-.526 1.73-1.526 3.064-3 4h-6c.526-1.73 1.526-3.064 3-4Z" opacity=".756"/>
    <path fill="#425690" d="M89.5 145.5h5c-.333 1-1 1.667-2 2h-4c-.172-.992.162-1.658 1-2Z" opacity=".698"/>
    <path fill="#425690" d="M108.5 145.5h48l1 2h-48c-.838-.342-1.172-1.008-1-2Z" opacity=".974"/>
    <path fill="#403975" d="M56.5 146.5h5l-1 2h-5l1-2Z" opacity=".797"/>
    <path fill="#403672" d="M67.5 147.5h5a301.462 301.462 0 0 1-3 4h-5c.526-1.73 1.526-3.064 3-4Z" opacity=".708"/>
    <path fill="#42528D" d="M88.5 147.5h4c.073 1.527-.594 2.527-2 3h-4c-.073-1.527.594-2.527 2-3Z" opacity=".725"/>
    <path fill="#42528D" d="M109.5 147.5h48c1.406.473 2.073 1.473 2 3h-48c-.901-.79-1.568-1.79-2-3Z" opacity=".965"/>
    <path fill="#403672" d="M44.5 148.5h5l-3 4h-5c.238-1.904 1.238-3.238 3-4Z" opacity=".714"/>
    <path fill="#403672" d="M55.5 148.5h5l-2 3h-5c-.073-1.527.594-2.527 2-3Z" opacity=".704"/>
    <path fill="#403672" d="M75.5 148.5h6c-.238 1.904-1.238 3.238-3 4h-6c.526-1.73 1.526-3.064 3-4Z" opacity=".748"/>
    <path fill="#424F8A" d="M86.5 150.5h4c.172.992-.162 1.658-1 2h-5c.333-1 1-1.667 2-2Z" opacity=".706"/>
    <path fill="#424F8A" d="M111.5 150.5h48c1 .333 1.667 1 2 2h-48c-1-.333-1.667-1-2-2Z" opacity=".965"/>
    <path fill="#40326F" d="M53.5 151.5h5c-.333 1-1 1.667-2 2h-5c.333-1 1-1.667 2-2Z" opacity=".667"/>
    <path fill="#40326E" d="M64.5 151.5h5c-.333 1-1 1.667-2 2h-5c.333-1 1-1.667 2-2Z" opacity=".678"/>
    <path fill="#40326E" d="M41.5 152.5h5c-.333 1-1 1.667-2 2h-5c.333-1 1-1.667 2-2Z" opacity=".684"/>
    <path fill="#40326E" d="M72.5 152.5h6c.172.992-.162 1.658-1 2h-6c-.172-.992.162-1.658 1-2Z" opacity=".775"/>
    <path fill="#424C87" d="M84.5 152.5h5c-.432 1.21-1.099 2.21-2 3h-5l2-3Z" opacity=".731"/>
    <path fill="#424C87" d="M113.5 152.5h48c.901.79 1.568 1.79 2 3h-48c-1.406-.473-2.073-1.473-2-3Z" opacity=".965"/>
    <path fill="#402F6B" d="M51.5 153.5h5c-.432 1.21-1.099 2.21-2 3h-5l2-3Z" opacity=".752"/>
    <path fill="#402F6B" d="M62.5 153.5h5c.073 1.527-.594 2.527-2 3h-5l2-3Z" opacity=".717"/>
    <path fill="#402F6B" d="M39.5 154.5h5c.073 1.527-.594 2.527-2 3h-5l2-3Z" opacity=".723"/>
    <path fill="#402F6C" d="M71.5 154.5h6l-2 3h-6c-.073-1.527.594-2.527 2-3Z" opacity=".799"/>
    <path fill="#414984" d="M82.5 155.5h5l-1 2h-5l1-2Z" opacity=".784"/>
    <path fill="#414984" d="M115.5 155.5h48c1 .333 1.667 1 2 2h-49l-1-2Z" opacity=".965"/>
    <path fill="#402C69" d="M49.5 156.5h5l-1 2h-5c-.172-.992.162-1.658 1-2Z" opacity=".731"/>
    <path fill="#3F2C69" d="M60.5 156.5h5c.172.992-.162 1.658-1 2h-5l1-2Z" opacity=".737"/>
    <path fill="#3F2C69" d="M37.5 157.5h5l-1 2h-5c-.172-.992.162-1.658 1-2ZM69.5 157.5h6c-.333 1-1 1.667-2 2h-6c.333-1 1-1.667 2-2Z" opacity=".746"/>
    <path fill="#414681" d="M81.5 157.5h5l-2 3h-5c-.073-1.527.594-2.527 2-3Z" opacity=".695"/>
    <path fill="#414581" d="M116.5 157.5h49l2 3h-48a6.547 6.547 0 0 1-3-3Z" opacity=".965"/>
    <path fill="#3F2966" d="M48.5 158.5h5a813.979 813.979 0 0 0-4 5h-5a21.622 21.622 0 0 1 4-5Z" opacity=".721"/>
    <path fill="#3F2966" d="M59.5 158.5h5a18.95 18.95 0 0 0-3 5h-2c-1.333-2.667-2.667-2.667-4 0h-2c1.106-2.577 3.106-4.244 6-5Z" opacity=".653"/>
    <path fill="#3F2966" d="M36.5 159.5h5a813.979 813.979 0 0 0-4 5h-5a21.622 21.622 0 0 1 4-5Z" opacity=".732"/>
    <path fill="#3F2965" d="M67.5 159.5h6a11.743 11.743 0 0 1-3 5h-6a11.743 11.743 0 0 1 3-5Z" opacity=".771"/>
    <path fill="#41427E" d="M79.5 160.5h5l-2 3h-5c-.073-1.527.594-2.527 2-3Z" opacity=".699"/>
    <path fill="#41427D" d="M119.5 160.5h48l2 3h-48c-1.406-.473-2.073-1.473-2-3Z" opacity=".972"/>
    <path fill="#413F7B" d="M77.5 163.5h5c-.333 1-1 1.667-2 2h-5c.333-1 1-1.667 2-2Z" opacity=".664"/>
    <path fill="#413F7B" d="M121.5 163.5h48c.838.342 1.172 1.008 1 2h-48c-.838-.342-1.172-1.008-1-2Z" opacity=".966"/>
    <path fill="#3F2562" d="M53.5 163.5h2v3h4v-3h2c.838.342 1.172 1.008 1 2-.838.342-1.172 1.008-1 2-.667 0-1 .333-1 1-3.895 1.386-6.562.053-8-4 .124-.607.457-.94 1-1Z" opacity=".452"/>
    <path fill="#3F2562" d="M44.5 163.5h5c-.728 2.235-2.061 4.068-4 5.5 1.21 5.944-1.124 7.777-7 5.5-2.283-4.826-.95-7.659 4-8.5.566-.995 1.233-1.828 2-2.5Zm-4 5c4.434 1.058 4.767 2.725 1 5-2.204-1.282-2.538-2.949-1-5Z" opacity=".528"/>
    <path fill="#413D78" d="M75.5 165.5h5a5.728 5.728 0 0 1-1 3h-2c-1.667-1.333-3.333-1.333-5 0h-2c.9-2.227 2.567-3.227 5-3Z" opacity=".576"/>
    <path fill="#413D77" d="M122.5 165.5h48a6.547 6.547 0 0 1 3 3h-49l-2-3Z" opacity=".966"/>
    <path fill="#3F2562" d="M32.5 164.5h5a537.252 537.252 0 0 1-16.5 23 22.5 22.5 0 0 0-2 7c-2.459 2.6-4.959 2.6-7.5 0-.985-1.598-1.151-3.265-.5-5a28.677 28.677 0 0 0 7-5 468.152 468.152 0 0 1 14.5-20Zm-19 25h4c-.035 5.524-1.701 6.191-5 2 .363-.683.696-1.35 1-2Z" opacity=".655"/>
    <path fill="#3F2562" d="M64.5 164.5h6c-7.949 10.123-14.949 20.623-21 31.5-5.492.486-7.325-2.014-5.5-7.5l5-2a288.114 288.114 0 0 0 11.5-18c.667 0 1-.333 1-1 .838-.342 1.172-1.008 1-2l2-1Zm-18 25c4.84.688 5.173 2.355 1 5-2.204-1.282-2.538-2.949-1-5Z" opacity=".67"/>
    <path fill="#403975" d="M124.5 168.5h49l1 2h-48c-1-.333-1.667-1-2-2Z" opacity=".966"/>
    <path fill="#403773" d="M70.5 168.5h2c2.007 5.2 3.673 5.2 5 0h2c-.444 6.161-3.277 7.495-8.5 4a8.435 8.435 0 0 1-.5-4Z" opacity=".448"/>
    <path fill="#403672" d="M126.5 170.5h48c1.474.936 2.474 2.27 3 4h-48c-1.474-.936-2.474-2.27-3-4Z" opacity=".967"/>
    <path fill="#40336E" d="M129.5 174.5h48c1.406.473 2.073 1.473 2 3h-48c-.901-.79-1.568-1.79-2-3Z" opacity=".967"/>
    <path fill="#40306B" d="M131.5 177.5h48a6.547 6.547 0 0 1 3 3h-49l-2-3Z" opacity=".967"/>
    <path fill="#3F2D68" d="M133.5 180.5h49l2 3h-49l-2-3Z" opacity=".967"/>
    <path fill="#3F2865" d="M135.5 183.5h49c1.692 1.705 3.025 3.705 4 6h-48a579.57 579.57 0 0 1-5-6Z" opacity=".964"/>
    <path fill="#3E2663" d="M140.5 189.5h48c1 .333 1.667 1 2 2h-49l-1-2Z" opacity=".968"/>
    <path fill="#3E2562" d="M141.5 191.5h49l7 10h-49l-7-10Z" opacity=".968"/>
  </g>
</svg>
